<?xml version="1.0" encoding="UTF-8"?>
<svg id="Camada_1" xmlns="http://www.w3.org/2000/svg" version="1.1" viewBox="0 0 1080 1080">
  <!-- Generator: Adobe Illustrator 30.3.0, SVG Export Plug-In . SVG Version: 2.1.3 Build 182)  -->
  <defs>
    <style>
      .st0 {
        fill: #03bbb3;
      }

      .st1 {
        fill: #532be6;
      }
    </style>
  </defs>
  <path class="st1" d="M738.92,785.82c11.85-40.72-34.05-59.08-64.36-45.05-23.38,20.45-30.89,48.83-56.16,65.93-27.5,32.99-107.83,41.46-92.64-19.82,135.99-153.94,326.97-373.69,320.63-589.26-148.88-308.55-441.15,364.81-449.88,510.12-325.99,62.8-330.63,320.02-4.11,149.13,26.85,192.88,297.55,92.5,346.51-71.05ZM636.1,398.32c24.2-54.22,49.23-113.91,89.1-158.67,3.57,119.16-91.29,253.67-158.48,350.3,12.03-62.04,43.89-131.55,69.38-191.62ZM364.86,788.68c-171.66,144.31-185.62,24.26-3.61-7.38,4.22-.7,6.79,4.55,3.61,7.38Z"/>
  <path class="st0" d="M817.64,774.03c-5.09,11.83-21.46,7.68-26.08-2.25-4.14-12.64-13.39-37.66-18.4-49.99-8.41-26.02-38.03-31.46-61.15-38.15,0,0-14.52-4.25-14.52-4.25-14.81-4.79-13.77-25.72,1.03-29.34,0,0,9.7-3.23,9.7-3.23l31.69-11.42c43.2-10.6,48.34-99.48,76.12-79.72,15.44,18.68,13.85,58.8,44.11,78.13,21.88,13.98,47.02,14.8,61.2,23.14,31.39,26.86-29.1,34.41-45.15,39.46-35.54,6.85-46.24,48.94-58.55,77.6Z"/>
</svg>