<?xml version="1.0" encoding="UTF-8"?>
<svg id="Camada_1" xmlns="http://www.w3.org/2000/svg" version="1.1" viewBox="0 0 1080 1080">
  <!-- Generator: Adobe Illustrator 30.3.0, SVG Export Plug-In . SVG Version: 2.1.3 Build 182)  -->
  <defs>
    <style>
      .st0 {
        fill: #03bbb3;
      }

      .st1 {
        fill: #532be6;
      }
    </style>
  </defs>
  <path class="st0" d="M955.1,547.85c-3.58,8.32-15.08,5.4-18.33-1.58-2.91-8.88-9.42-26.47-12.94-35.14-5.91-18.29-26.73-22.11-42.99-26.81,0,0-10.21-2.99-10.21-2.99-10.41-3.36-9.68-18.08.73-20.62,0,0,6.82-2.27,6.82-2.27l22.28-8.02c30.37-7.45,33.98-69.93,53.51-56.04,10.86,13.13,9.73,41.33,31.01,54.92,15.38,9.82,33.05,10.41,43.02,16.26,22.07,18.88-20.46,24.19-31.74,27.74-24.98,4.81-32.5,34.4-41.16,54.55Z"/>
  <path class="st1" d="M930.43,649.92c-97.06,96.83-47.63-7.1-23.99-63.29,23.65-58.69-47.31-73.42-65.63-18.32-13.1,24.88-23.45,53.51-33.01,79.78-5.17,16.22-6.94,42.87-28.63,44.44-9.99-18.76,29.1-77,33.32-101.76,37.6-97.49-79.87-52.51-111.86-8.44,23.62-85.55-80.4-43.5-107.7-4.92-1.09,1.06-3.44,5.4-5.27,3.09,47.71-76.88-61.74-54.38-71.32.76-8.85,16.5-16.71,40.37-22.79,57.95-6.98,20.68-4.58,45.4-29.7,52.78-26.07,3.44,60.89-137.05,44.81-153.97-76.7-34.09-86.67,91.56-132.33,127.4-30.74,34.02,8.36-50.17,12.46-62.16,4.84-11.38,12.64-27.74,17.28-39.12,23.72-43.6-51.86-39.55-65.66-10.38-16,25.37-29.23,57.84-39.19,86.21-3.69,11.15-7.35,27.87-10.9,39.08-14.27,17.29-56.36,21.79-48.42-10.24,70.95-80.31,170.59-194.97,167.29-307.44-77.68-160.98-230.16,190.33-234.72,266.14-170.08,32.76-172.5,166.96-2.14,77.81,8.28,46.22,39.6,73.27,114.45,40.73,10.39-4.21,14.57,3.71,22.61,8.8,27.13,15.01,59.72-8.75,76.64-29.8,6.31,45.25,60.94,38.23,92.94,20.36,6.21-.6,8.21,11.08,15.5,12.14,62.33,17.27,76.92-100.61,118.92-133.99-5.47,28.47-21.54,58.48-24.66,87.99-12.09,59.43,56.58,61.78,74.19,13.43,16.4-34.77,35.94-71,63.04-98.65-2.8,16.76-15.48,39.92-20.48,56.28-31.26,67.83,36.36,96.37,89.52,63.55,4.18-1.75,11.05-6.65,13.83-.6,47.08,43.52,126.03-20.87,152.14-60.69,14.94-25.44-.62-61.88-30.56-34.95ZM299.49,466.09c12.63-28.29,25.69-59.43,46.49-82.79,1.86,62.17-47.63,132.35-82.68,182.76,6.28-32.37,22.9-68.63,36.2-99.98ZM157.98,669.76c-89.56,75.29-96.84,12.66-1.88-3.85,2.2-.36,3.54,2.37,1.88,3.85Z"/>
</svg>