<?xml version="1.0" encoding="UTF-8"?>
<svg id="Camada_1" xmlns="http://www.w3.org/2000/svg" version="1.1" viewBox="0 0 1080 604.68">
  <!-- Generator: Adobe Illustrator 30.3.0, SVG Export Plug-In . SVG Version: 2.1.3 Build 182)  -->
  <defs>
    <style>
      .st0 {
        fill: #fff;
      }
    </style>
  </defs>
  <path class="st0" d="M615.22,529.98v-187.16h63.85v35.58h1.95c3.9-11.7,10.56-20.96,19.98-27.78,9.42-6.82,20.63-10.24,33.63-10.24s24.49,3.47,34,10.42c9.5,6.94,15.23,16.14,17.18,27.6h1.95c3.17-11.45,9.91-20.65,20.23-27.6,10.32-6.95,22.42-10.42,36.31-10.42,17.95,0,32.51,5.77,43.68,17.3,11.17,11.54,16.76,26.89,16.76,46.06v126.24h-67.26v-109.18c0-8.2-2.07-14.64-6.22-19.31-4.14-4.67-9.71-7.01-16.69-7.01s-12.37,2.34-16.39,7.01c-4.02,4.67-6.03,11.11-6.03,19.31v109.18h-64.33v-109.18c0-8.2-2.07-14.64-6.22-19.31-4.14-4.67-9.71-7.01-16.69-7.01-4.63,0-8.61,1.06-11.94,3.17-3.33,2.11-5.91,5.14-7.74,9.08-1.83,3.94-2.74,8.63-2.74,14.07v109.18h-67.26Z"/>
  <path class="st0" d="M926.56,529.98v-187.16h67.26v187.16h-67.26Z"/>
  <path class="st0" d="M525.17,342.82v105.27c.07,6.17-.99,11.49-3.22,15.91s-5.41,7.83-9.51,10.23c-4.1,2.4-8.96,3.59-14.56,3.59-8.45,0-15.02-2.63-19.69-7.92-4.68-5.27-7.05-12.53-7.12-21.81v-105.27h-67.27v4.84c-1.15,53.29-38.14,90.28-63.45,109.07-25.75,17.87-68.35,23.33-59.53-12.25,78.99-89.4,189.91-217.04,186.22-342.23-86.45-179.2-256.21,211.88-261.28,296.26-189.33,36.48-192,185.85-2.37,86.62,14.21,102.02,145.94,68.7,201.44-9.4,1.24,8.27,3.64,15.87,7.19,22.82,5.41,10.55,13.01,18.84,22.8,24.85,9.79,6.01,21.21,9.03,34.29,9.03,13.98,0,26.02-3.36,36.18-10.06,10.16-6.7,17.27-16.03,21.33-27.96h1.96v35.58h63.84v-187.17h-67.25ZM344.92,218.82c14.05-31.51,28.6-66.17,51.75-92.17,2.07,69.21-53.02,147.32-92.05,203.45,7-36.04,25.49-76.39,40.3-111.28ZM187.39,445.53c-99.7,83.81-107.8,14.07-2.1-4.31,2.44-.39,3.94,2.65,2.1,4.31Z"/>
  <path class="st0" d="M960.47,213.68c.54,5.61,2.84,21.96,15.99,36.51,15.81,17.5,36.14,20.07,41.08,20.55-4.45.14-23.58,1.25-39.52,16.74-16.73,16.25-17.83,36.56-17.96,40.75-.81-5.69-4.01-22.95-18.81-37.9-15.1-15.26-32.76-18.5-38.4-19.3,5.65-.79,24.26-4.12,39.69-20.32,13.9-14.6,17.08-31.1,17.93-37.03Z"/>
</svg>